<?xml version="1.0" encoding="utf-8"?>
<!-- Generator: Adobe Illustrator 18.0.0, SVG Export Plug-In . SVG Version: 6.00 Build 0)  -->
<svg version="1.1" xmlns="http://www.w3.org/2000/svg" xmlns:xlink="http://www.w3.org/1999/xlink" x="0px" y="0px"
	 viewBox="0 0 56.7 44.5" style="enable-background:new 0 0 56.7 44.5;" xml:space="preserve">
<style type="text/css">
	.st0{display:none;}
	.st1{display:inline;fill:#C81C2B;}
	.st2{fill:none;stroke:#FFFFFF;stroke-width:2;stroke-miterlimit:10;}
	.st3{fill:none;stroke:#FFFFFF;stroke-width:2;stroke-linecap:round;stroke-miterlimit:10;}
</style>
<g id="Calque_2" class="st0">
	<rect x="0" y="0" class="st1" width="56.7" height="44.6"/>
</g>
<g id="Calque_1">
	<ellipse class="st2" cx="28.3" cy="32.3" rx="25.8" ry="2.4"/>
	<path class="st2" d="M11.2,33.9c-1.8-3.1-2.8-6.8-2.8-10.7c0-11.6,8.9-21,19.9-21s19.9,9.4,19.9,21c0,3.9-1,7.6-2.8,10.7"/>
	<path class="st3" d="M15.4,14.7c1.2-2.7,3.2-5.1,5.9-6.6"/>
	<path class="st3" d="M50.4,34.3c-2.3,3.1-11.2,5.3-21.9,5.3c-11.2,0-20.5-2.5-22.2-5.8"/>
	<path class="st3" d="M41.9,38.1c-1.3,3.2-6.8,4.2-13.5,4.2c-6.6,0-12.2-1-13.5-4.1"/>
</g>
</svg>
